<svg width="20" height="20" viewBox="0 0 20 20" fill="none" xmlns="http://www.w3.org/2000/svg">
<path d="M11.6667 1.66666V4.99999C11.6667 5.44202 11.8423 5.86594 12.1548 6.1785C12.4674 6.49106 12.8913 6.66666 13.3333 6.66666H16.6667" stroke="currentColor" stroke-width="1.66667" stroke-linecap="round" stroke-linejoin="round"/>
<path d="M13.3333 18.3333H15C15.442 18.3333 15.866 18.1577 16.1785 17.8452C16.4911 17.5326 16.6667 17.1087 16.6667 16.6667V5.83332L12.5 1.66666H5.00001C4.55798 1.66666 4.13406 1.84225 3.8215 2.15481C3.50894 2.46737 3.33334 2.8913 3.33334 3.33332V6.24999" stroke="currentColor" stroke-width="1.66667" stroke-linecap="round" stroke-linejoin="round"/>
<path d="M3.34752 9.59332C2.83783 10.0456 2.42598 10.5974 2.13726 11.2146C1.84854 11.8319 1.68905 12.5017 1.66858 13.1828C1.64811 13.864 1.76708 14.5421 2.01821 15.1756C2.26933 15.8091 2.6473 16.3846 3.12891 16.8667C3.61051 17.3488 4.18559 17.7274 4.81881 17.9792C5.45204 18.231 6.13006 18.3507 6.81122 18.3309C7.49239 18.3112 8.16233 18.1524 8.77991 17.8644C9.39748 17.5763 9.94966 17.165 10.4025 16.6558" stroke="currentColor" stroke-width="1.66667" stroke-linecap="round" stroke-linejoin="round"/>
<path d="M7.49999 13.3333C7.27898 13.3333 7.06701 13.2455 6.91073 13.0893C6.75445 12.933 6.66666 12.721 6.66666 12.5V9.16668C6.66666 8.70668 7.04166 8.32668 7.49582 8.40251C8.52108 8.57491 9.4671 9.06261 10.2022 9.79776C10.9374 10.5329 11.4251 11.4789 11.5975 12.5042C11.6733 12.9575 11.2933 13.3333 10.8333 13.3333H7.49999Z" stroke="currentColor" stroke-width="1.66667" stroke-linecap="round" stroke-linejoin="round"/>
</svg>
