<svg width="20" height="20" viewBox="0 0 20 20" fill="none" xmlns="http://www.w3.org/2000/svg">
<g clip-path="url(#clip0_56_3366)">
<path d="M9.99996 13.3333C11.8409 13.3333 13.3333 11.8409 13.3333 9.99999C13.3333 8.15904 11.8409 6.66666 9.99996 6.66666C8.15901 6.66666 6.66663 8.15904 6.66663 9.99999C6.66663 11.8409 8.15901 13.3333 9.99996 13.3333Z" stroke="white" stroke-width="1.66667" stroke-linecap="round" stroke-linejoin="round"/>
<path d="M13.3333 6.66666V10.8333C13.3333 11.4964 13.5967 12.1323 14.0655 12.6011C14.5344 13.0699 15.1703 13.3333 15.8333 13.3333C16.4963 13.3333 17.1322 13.0699 17.6011 12.6011C18.0699 12.1323 18.3333 11.4964 18.3333 10.8333V10C18.3333 8.12275 17.6995 6.30049 16.5345 4.82847C15.3695 3.35644 13.7416 2.32089 11.9146 1.88959C10.0875 1.45829 8.16841 1.6565 6.46811 2.45212C4.7678 3.24774 3.38594 4.59416 2.54641 6.27322C1.70688 7.95228 1.45887 9.86561 1.84255 11.7032C2.22624 13.5408 3.21915 15.1951 4.66041 16.3979C6.10167 17.6008 7.90684 18.2817 9.78345 18.3305C11.6601 18.3793 13.4982 17.793 15 16.6667" stroke="white" stroke-width="1.66667" stroke-linecap="round" stroke-linejoin="round"/>
</g>
<defs>
<clipPath id="clip0_56_3366">
<rect width="20" height="20" fill="white"/>
</clipPath>
</defs>
</svg>
