<svg width="20" height="17" viewBox="0 0 20 17" fill="none" xmlns="http://www.w3.org/2000/svg">
<path d="M1.66675 5.91667C1.66677 4.98933 1.94808 4.08382 2.47353 3.31972C2.99898 2.55562 3.74385 1.96888 4.60976 1.637C5.47567 1.30511 6.42188 1.2437 7.32343 1.46087C8.22497 1.67803 9.03944 2.16356 9.65925 2.85333C9.7029 2.90001 9.75568 2.93722 9.81431 2.96266C9.87294 2.98811 9.93617 3.00123 10.0001 3.00123C10.064 3.00123 10.1272 2.98811 10.1859 2.96266C10.2445 2.93722 10.2973 2.90001 10.3409 2.85333C10.9588 2.15908 11.7734 1.66947 12.6764 1.44967C13.5795 1.22986 14.528 1.29029 15.3958 1.6229C16.2636 1.95551 17.0096 2.54454 17.5343 3.31158C18.0591 4.07862 18.3378 4.9873 18.3334 5.91667C18.3334 7.825 17.0834 9.25 15.8334 10.5L11.2567 14.9275C11.1015 15.1058 10.91 15.2491 10.6951 15.3478C10.4802 15.4464 10.2468 15.4982 10.0103 15.4997C9.77386 15.5012 9.53979 15.4524 9.32365 15.3564C9.10752 15.2605 8.91427 15.1197 8.75675 14.9433L4.16675 10.5C2.91675 9.25 1.66675 7.83333 1.66675 5.91667Z" stroke="#C21F1F" stroke-width="1.66667" stroke-linecap="round" stroke-linejoin="round"/>
</svg>
