<svg width="22" height="22" viewBox="0 0 22 22" fill="none" xmlns="http://www.w3.org/2000/svg">
<g clip-path="url(#clip0_69_589)">
<path d="M11 14.6667H11.011" stroke="white" stroke-width="1.83333" stroke-linecap="round" stroke-linejoin="round"/>
<path d="M11 7.33325V10.9999" stroke="white" stroke-width="1.83333" stroke-linecap="round" stroke-linejoin="round"/>
<path d="M14.036 1.83325C14.5222 1.83336 14.9885 2.02658 15.3322 2.37042L19.6295 6.66775C19.9734 7.01149 20.1666 7.47773 20.1667 7.96392V14.0359C20.1666 14.5221 19.9734 14.9884 19.6295 15.3321L15.3322 19.6294C14.9885 19.9733 14.5222 20.1665 14.036 20.1666H7.96404C7.47785 20.1665 7.01161 19.9733 6.66787 19.6294L2.37054 15.3321C2.0267 14.9884 1.83348 14.5221 1.83337 14.0359V7.96392C1.83348 7.47773 2.0267 7.01149 2.37054 6.66775L6.66787 2.37042C7.01161 2.02658 7.47785 1.83336 7.96404 1.83325H14.036Z" stroke="white" stroke-width="1.83333" stroke-linecap="round" stroke-linejoin="round"/>
</g>
<defs>
<clipPath id="clip0_69_589">
<rect width="22" height="22" fill="white"/>
</clipPath>
</defs>
</svg>
