<svg width="20" height="20" viewBox="0 0 20 20" fill="none" xmlns="http://www.w3.org/2000/svg">
<g clip-path="url(#clip0_14_267)">
<path d="M11.755 4.62751C11.9863 4.74311 12.2414 4.80329 12.5 4.80329C12.7586 4.80329 13.0137 4.74311 13.245 4.62751L16.2942 3.10251C16.4213 3.03897 16.5626 3.00902 16.7046 3.01548C16.8466 3.02195 16.9845 3.06462 17.1054 3.13945C17.2262 3.21428 17.3259 3.31877 17.395 3.44299C17.4641 3.56722 17.5002 3.70704 17.5 3.84917V14.4858C17.4999 14.6406 17.4568 14.7922 17.3754 14.9238C17.294 15.0554 17.1776 15.1617 17.0392 15.2308L13.245 17.1283C13.0137 17.2439 12.7586 17.3041 12.5 17.3041C12.2414 17.3041 11.9863 17.2439 11.755 17.1283L8.245 15.3733C8.01367 15.2577 7.75861 15.1976 7.5 15.1976C7.2414 15.1976 6.98634 15.2577 6.755 15.3733L3.70584 16.8983C3.57863 16.9619 3.43727 16.9919 3.29522 16.9854C3.15316 16.9789 3.01513 16.9361 2.89427 16.8612C2.7734 16.7863 2.67372 16.6816 2.60471 16.5573C2.5357 16.433 2.49965 16.293 2.5 16.1508V5.51501C2.50009 5.36029 2.54324 5.20865 2.62463 5.07707C2.70602 4.94549 2.82244 4.83917 2.96084 4.77001L6.755 2.87251C6.98634 2.75691 7.2414 2.69673 7.5 2.69673C7.75861 2.69673 8.01367 2.75691 8.245 2.87251L11.755 4.62751Z" stroke="white" stroke-width="1.66667" stroke-linecap="round" stroke-linejoin="round"/>
<path d="M12.5 4.80331V17.3033" stroke="white" stroke-width="1.66667" stroke-linecap="round" stroke-linejoin="round"/>
<path d="M7.5 2.69669V15.1967" stroke="white" stroke-width="1.66667" stroke-linecap="round" stroke-linejoin="round"/>
</g>
<defs>
<clipPath id="clip0_14_267">
<rect width="20" height="20" fill="white"/>
</clipPath>
</defs>
</svg>
