<svg width="20" height="20" viewBox="0 0 20 20" fill="none" xmlns="http://www.w3.org/2000/svg">
<g clip-path="url(#clip0_14_259)">
<path d="M12.5 15H8.33337" stroke="currentColor" stroke-width="1.66667" stroke-linecap="round" stroke-linejoin="round"/>
<path d="M15 11.6667H8.33337" stroke="currentColor" stroke-width="1.66667" stroke-linecap="round" stroke-linejoin="round"/>
<path d="M3.33329 18.3333H16.6666C17.1087 18.3333 17.5326 18.1577 17.8451 17.8452C18.1577 17.5326 18.3333 17.1087 18.3333 16.6667V3.33334C18.3333 2.89131 18.1577 2.46739 17.8451 2.15483C17.5326 1.84227 17.1087 1.66667 16.6666 1.66667H6.66663C6.2246 1.66667 5.80068 1.84227 5.48811 2.15483C5.17555 2.46739 4.99996 2.89131 4.99996 3.33334V16.6667C4.99996 17.1087 4.82436 17.5326 4.5118 17.8452C4.19924 18.1577 3.77532 18.3333 3.33329 18.3333ZM3.33329 18.3333C2.89127 18.3333 2.46734 18.1577 2.15478 17.8452C1.84222 17.5326 1.66663 17.1087 1.66663 16.6667V9.16667C1.66663 8.72464 1.84222 8.30072 2.15478 7.98816C2.46734 7.6756 2.89127 7.50001 3.33329 7.50001H4.99996" stroke="currentColor" stroke-width="1.66667" stroke-linecap="round" stroke-linejoin="round"/>
<path d="M14.1667 5H9.16671C8.70647 5 8.33337 5.3731 8.33337 5.83333V7.5C8.33337 7.96024 8.70647 8.33333 9.16671 8.33333H14.1667C14.6269 8.33333 15 7.96024 15 7.5V5.83333C15 5.3731 14.6269 5 14.1667 5Z" stroke="currentColor" stroke-width="1.66667" stroke-linecap="round" stroke-linejoin="round"/>
</g>
<defs>
<clipPath id="clip0_14_259">
<rect width="20" height="20" fill="transparent"/>
</clipPath>
</defs>
</svg>
