<svg width="20" height="20" viewBox="0 0 20 20" fill="none" xmlns="http://www.w3.org/2000/svg">
<g clip-path="url(#clip0_56_4116)">
<path d="M2.15499 14.5117C1.84241 14.8242 1.66675 15.248 1.66666 15.69V17.5C1.66666 17.721 1.75445 17.933 1.91073 18.0893C2.06701 18.2455 2.27898 18.3333 2.49999 18.3333H4.99999C5.221 18.3333 5.43296 18.2455 5.58925 18.0893C5.74553 17.933 5.83332 17.721 5.83332 17.5V16.6667C5.83332 16.4457 5.92112 16.2337 6.0774 16.0774C6.23368 15.9211 6.44564 15.8333 6.66666 15.8333H7.49999C7.721 15.8333 7.93296 15.7455 8.08925 15.5893C8.24553 15.433 8.33332 15.221 8.33332 15V14.1667C8.33332 13.9457 8.42112 13.7337 8.5774 13.5774C8.73368 13.4211 8.94564 13.3333 9.16666 13.3333H9.30999C9.75198 13.3332 10.1758 13.1576 10.4883 12.845L11.1667 12.1667C12.3249 12.5701 13.5857 12.5686 14.7429 12.1623C15.9001 11.756 16.8852 10.969 17.537 9.93011C18.1887 8.89118 18.4687 7.66181 18.3309 6.44312C18.1932 5.22442 17.6459 4.08854 16.7787 3.22131C15.9114 2.35407 14.7756 1.80682 13.5569 1.66908C12.3382 1.53133 11.1088 1.81125 10.0699 2.46304C9.03096 3.11482 8.24398 4.0999 7.8377 5.2571C7.43141 6.41431 7.42987 7.67514 7.83332 8.83333L2.15499 14.5117Z" stroke="white" stroke-width="1.66667" stroke-linecap="round" stroke-linejoin="round"/>
<path d="M13.75 6.66666C13.9801 6.66666 14.1667 6.48011 14.1667 6.24999C14.1667 6.01988 13.9801 5.83333 13.75 5.83333C13.5199 5.83333 13.3333 6.01988 13.3333 6.24999C13.3333 6.48011 13.5199 6.66666 13.75 6.66666Z" fill="white" stroke="white" stroke-width="1.66667" stroke-linecap="round" stroke-linejoin="round"/>
</g>
<defs>
<clipPath id="clip0_56_4116">
<rect width="20" height="20" fill="white"/>
</clipPath>
</defs>
</svg>
