<svg width="20" height="20" viewBox="0 0 20 20" fill="none" xmlns="http://www.w3.org/2000/svg">
<g clip-path="url(#clip0_14_461)">
<mask id="mask0_14_461" style="mask-type:alpha" maskUnits="userSpaceOnUse" x="0" y="0" width="20" height="20">
<rect width="20" height="20" fill="#D9D9D9"/>
</mask>
<g mask="url(#mask0_14_461)">
<path d="M9.98959 14.8854C10.3326 14.8854 10.6163 14.7733 10.8406 14.549C11.0649 14.3247 11.1771 14.041 11.1771 13.6979C11.1771 13.3646 11.0649 13.0833 10.8406 12.8542C10.6163 12.625 10.3326 12.5104 9.98959 12.5104C9.64654 12.5104 9.36286 12.625 9.13855 12.8542C8.91425 13.0833 8.80209 13.3663 8.80209 13.7031C8.80209 14.0399 8.91425 14.3212 9.13855 14.5469C9.36286 14.7726 9.64654 14.8854 9.98959 14.8854ZM9.98959 11.1875C10.3326 11.1875 10.6163 11.0753 10.8406 10.851C11.0649 10.6267 11.1771 10.3431 11.1771 10C11.1771 9.65694 11.0649 9.37326 10.8406 9.14896C10.6163 8.92465 10.3326 8.8125 9.98959 8.8125C9.64654 8.8125 9.36286 8.92465 9.13855 9.14896C8.91425 9.37326 8.80209 9.65694 8.80209 10C8.80209 10.3431 8.91425 10.6267 9.13855 10.851C9.36286 11.0753 9.64654 11.1875 9.98959 11.1875ZM9.98959 7.48958C10.3326 7.48958 10.6163 7.37743 10.8406 7.15312C11.0649 6.92882 11.1771 6.64514 11.1771 6.30208C11.1771 5.95903 11.0649 5.67535 10.8406 5.45104C10.6163 5.22674 10.3326 5.11458 9.98959 5.11458C9.64654 5.11458 9.36286 5.22674 9.13855 5.45104C8.91425 5.67535 8.80209 5.95903 8.80209 6.30208C8.80209 6.64514 8.91425 6.92882 9.13855 7.15312C9.36286 7.37743 9.64654 7.48958 9.98959 7.48958ZM5.96876 12.4792V11.4375C5.28404 11.255 4.71008 10.8899 4.24689 10.3423C3.78369 9.79465 3.55209 9.15278 3.55209 8.41667H5.96876V7.375C5.28126 7.19444 4.70661 6.82708 4.2448 6.27292C3.783 5.71875 3.55209 5.07222 3.55209 4.33333H5.96876V4.25C5.96876 3.82028 6.12175 3.45243 6.42772 3.14646C6.73369 2.84049 7.10154 2.6875 7.53126 2.6875H12.4479C12.8776 2.6875 13.2455 2.84049 13.5515 3.14646C13.8574 3.45243 14.0104 3.82028 14.0104 4.25V4.33333H16.4479C16.4479 5.06944 16.2136 5.71528 15.7448 6.27083C15.2761 6.82639 14.6979 7.19444 14.0104 7.375V8.41667H16.4479C16.4479 9.15 16.2136 9.79167 15.7448 10.3417C15.2761 10.8917 14.6979 11.2569 14.0104 11.4375V12.4792H16.4479C16.4479 13.2181 16.2136 13.8646 15.7448 14.4187C15.2761 14.9729 14.6979 15.3403 14.0104 15.5208V15.75C14.0104 16.1797 13.8574 16.5476 13.5515 16.8535C13.2455 17.1595 12.8776 17.3125 12.4479 17.3125H7.53126C7.10154 17.3125 6.73369 17.1595 6.42772 16.8535C6.12175 16.5476 5.96876 16.1797 5.96876 15.75V15.5208C5.28126 15.3403 4.70661 14.9729 4.2448 14.4187C3.783 13.8646 3.55209 13.2181 3.55209 12.4792H5.96876ZM7.53126 15.75H12.4479V4.25H7.53126V15.75Z" fill="white"/>
</g>
</g>
<defs>
<clipPath id="clip0_14_461">
<rect width="20" height="20" fill="white"/>
</clipPath>
</defs>
</svg>
