<svg width="20" height="20" viewBox="0 0 20 20" fill="none" xmlns="http://www.w3.org/2000/svg">
<path d="M13.3334 1.66666V3.33332" stroke="white" stroke-width="1.66667" stroke-linecap="round" stroke-linejoin="round"/>
<path d="M14.9292 18.3333C14.9292 17.0073 14.4024 15.7355 13.4647 14.7978C12.5271 13.8601 11.2553 13.3333 9.9292 13.3333C8.60312 13.3333 7.33135 13.8601 6.39367 14.7978C5.45598 15.7355 4.9292 17.0073 4.9292 18.3333" stroke="white" stroke-width="1.66667" stroke-linecap="round" stroke-linejoin="round"/>
<path d="M6.66663 1.66666V3.33332" stroke="white" stroke-width="1.66667" stroke-linecap="round" stroke-linejoin="round"/>
<path d="M9.99996 13.3333C11.8409 13.3333 13.3333 11.8409 13.3333 9.99999C13.3333 8.15904 11.8409 6.66666 9.99996 6.66666C8.15901 6.66666 6.66663 8.15904 6.66663 9.99999C6.66663 11.8409 8.15901 13.3333 9.99996 13.3333Z" stroke="white" stroke-width="1.66667" stroke-linecap="round" stroke-linejoin="round"/>
<path d="M15.8333 3.33334H4.16667C3.24619 3.33334 2.5 4.07954 2.5 5.00001V16.6667C2.5 17.5872 3.24619 18.3333 4.16667 18.3333H15.8333C16.7538 18.3333 17.5 17.5872 17.5 16.6667V5.00001C17.5 4.07954 16.7538 3.33334 15.8333 3.33334Z" stroke="white" stroke-width="1.66667" stroke-linecap="round" stroke-linejoin="round"/>
</svg>
